<?xml version="1.0" standalone="no"?>
<!DOCTYPE svg PUBLIC "-//W3C//DTD SVG 20010904//EN"
 "http://www.w3.org/TR/2001/REC-SVG-20010904/DTD/svg10.dtd">
<svg version="1.0" xmlns="http://www.w3.org/2000/svg"
 width="728.000000pt" height="728.000000pt" viewBox="0 0 728.000000 728.000000"
 preserveAspectRatio="xMidYMid meet">

<g transform="translate(0.000000,728.000000) scale(0.100000,-0.100000)"
fill="#000000" stroke="none">
<path d="M3450 6934 c-1260 -73 -2385 -878 -2863 -2049 -99 -241 -183 -549
-211 -770 -3 -22 -10 -76 -17 -120 -16 -118 -18 -528 -3 -675 69 -658 304
-1233 717 -1753 101 -128 372 -400 497 -499 484 -383 1032 -619 1640 -704 179
-26 683 -26 858 -1 323 47 597 123 881 244 640 273 1186 758 1550 1376 175
299 321 689 386 1035 40 212 48 301 50 582 3 272 1 306 -30 545 -9 71 -51 263
-81 371 -111 410 -331 840 -608 1189 -103 129 -373 399 -503 502 -508 403
-1071 637 -1713 713 -94 11 -445 20 -550 14z m230 -227 c56 -47 101 -64 190
-72 147 -13 221 -28 211 -44 -7 -11 -33 -11 -167 4 -203 22 -575 16 -759 -13
-113 -18 -145 -17 -131 6 8 13 187 39 350 52 115 9 133 13 163 36 19 14 44 46
55 70 l22 43 16 -27 c10 -15 32 -40 50 -55z m608 -114 c8 -83 -143 -249 -290
-319 -24 -11 -51 -37 -74 -72 -36 -55 -36 -55 -8 -33 99 77 172 109 218 97 67
-17 50 -106 -28 -154 -25 -15 -45 -34 -46 -42 0 -8 -8 -36 -17 -63 -33 -92 21
-86 130 13 59 54 86 62 48 14 -11 -15 -21 -40 -21 -56 0 -25 -3 -28 -21 -23
-14 5 -40 -2 -75 -20 -63 -32 -109 -28 -126 11 -10 20 -8 33 10 70 28 56 28
64 -2 64 -13 0 -29 7 -36 15 -27 33 34 60 80 35 34 -18 90 38 90 90 0 20 -4
22 -35 17 -51 -8 -149 -82 -243 -182 -67 -72 -85 -86 -102 -80 -13 4 -19 12
-16 20 3 10 -7 8 -34 -6 -91 -48 -179 -30 -207 41 l-16 40 -30 -40 c-30 -41
-72 -70 -103 -70 -25 0 -54 29 -54 54 0 16 -6 11 -29 -20 -17 -22 -53 -53 -80
-68 -28 -15 -53 -31 -56 -37 -4 -5 -24 9 -46 32 -35 37 -39 46 -39 92 0 62 25
120 80 190 22 27 43 61 46 74 6 24 19 30 29 13 3 -5 32 -7 69 -3 56 5 66 3 86
-17 12 -12 23 -20 24 -18 2 2 9 13 15 26 26 49 28 8 4 -58 -24 -64 -24 -71
-10 -93 14 -22 13 -24 -14 -39 -23 -14 -29 -24 -29 -53 0 -87 69 -37 140 102
28 55 65 108 98 141 28 29 52 59 52 67 0 18 12 19 27 4 6 -6 32 -12 57 -13 56
-2 79 -23 78 -68 -1 -44 -38 -77 -60 -54 -13 12 -13 18 -2 30 7 9 19 16 26 16
17 0 18 22 2 38 -29 29 -101 7 -149 -45 -75 -79 -100 -221 -46 -255 36 -23
119 -1 175 46 26 22 32 35 32 66 0 33 3 37 19 33 31 -8 45 6 136 136 106 153
108 157 103 192 -4 26 -2 29 22 29 17 0 38 13 61 36 62 66 110 95 149 92 31
-3 35 -6 38 -35z m-1331 5 c47 -61 -20 -276 -136 -433 l-51 -70 0 -87 c0 -98
12 -136 47 -144 31 -8 53 12 53 48 0 26 2 28 20 18 11 -6 25 -8 30 -5 10 6 34
85 44 147 6 34 5 37 -23 43 -16 3 -36 14 -46 25 -34 38 1 109 43 84 73 -45 67
-242 -11 -331 -63 -72 -143 -77 -185 -12 l-19 30 -12 -55 c-9 -40 -21 -62 -42
-81 -53 -44 -93 -29 -118 44 -6 19 -19 43 -27 53 -16 16 -15 19 4 35 14 13 21
35 26 78 6 73 -3 93 -36 78 -53 -24 -111 -187 -124 -346 l-7 -89 -28 4 c-18 3
-29 0 -29 -7 0 -7 -14 -31 -31 -54 -37 -52 -92 -78 -131 -63 -27 10 -29 8 -47
-34 -23 -51 -57 -66 -96 -40 l-25 16 -2 -47 c-1 -27 -1 -59 0 -73 1 -17 -6
-29 -21 -36 -12 -6 -36 -19 -54 -30 -27 -16 -37 -17 -62 -7 l-31 11 0 -40 c0
-76 -42 -128 -104 -128 -61 0 -164 106 -230 238 -15 29 -40 61 -56 71 -27 16
-28 19 -13 34 15 15 15 22 0 92 -20 89 -22 200 -4 235 21 42 56 33 94 -25 18
-27 44 -60 59 -71 22 -18 24 -24 13 -41 -10 -16 -9 -33 5 -89 9 -39 25 -132
35 -209 l17 -139 48 -33 c56 -39 60 -39 86 -13 25 25 27 113 5 186 -8 27 -15
72 -15 99 0 28 -7 63 -15 79 -15 29 -9 45 17 46 4 0 16 17 27 39 30 58 77 94
118 89 30 -4 33 -2 33 23 0 38 18 46 26 12 41 -182 72 -263 99 -263 29 0 37
40 33 166 -3 109 -5 125 -23 138 -19 14 -19 16 -3 28 12 9 18 31 20 73 3 63
18 76 30 26 10 -36 79 -100 118 -108 25 -4 29 -9 24 -28 -3 -12 2 -46 12 -75
l17 -54 15 40 c11 28 15 90 16 225 1 173 0 188 -19 209 -18 20 -18 23 -4 33
11 9 18 38 22 107 11 156 42 230 97 230 19 0 33 -7 40 -19 27 -51 -3 -246 -60
-390 -13 -34 -20 -73 -19 -114 0 -34 3 -55 6 -47 3 8 15 39 26 69 38 104 117
160 161 115 20 -19 20 -22 21 -161 0 -92 3 -115 17 -129 39 -40 71 40 88 226
6 63 20 155 32 203 19 84 20 131 4 169 -6 12 -2 17 16 20 17 2 32 21 60 78 51
102 105 146 135 108z m1566 -99 c67 -23 153 -54 191 -70 37 -16 72 -29 77 -29
5 0 15 11 21 25 7 16 19 25 32 24 21 0 21 0 -1 -9 -24 -10 -67 -113 -60 -142
8 -30 -10 -21 -44 22 -18 22 -36 40 -42 40 -5 0 -28 -20 -53 -45 -33 -34 -51
-45 -74 -45 -34 0 -77 -38 -85 -74 -30 -140 -40 -216 -27 -216 22 0 41 -32 52
-85 8 -40 16 -55 28 -55 10 0 13 -3 7 -8 -6 -4 -32 -41 -59 -82 -46 -73 -47
-77 -41 -130 8 -64 10 -67 61 -85 45 -15 64 -44 64 -97 0 -20 5 -39 10 -41 6
-3 5 -4 -2 -3 -7 2 -16 25 -19 53 -8 60 -14 73 -37 73 -9 0 -32 9 -49 20 -24
14 -33 27 -33 47 0 16 -4 34 -8 41 -11 17 -195 82 -233 82 -35 0 -70 -16 -83
-39 -8 -13 -12 -6 -21 29 -10 43 -13 46 -59 57 -97 24 -292 43 -446 43 -491 0
-947 -155 -1345 -459 -81 -62 -293 -269 -312 -305 -10 -19 -13 -44 -10 -68 4
-32 3 -38 -10 -34 -59 23 -57 25 -143 -106 -203 -305 -326 -655 -360 -1026
-14 -140 -11 -159 30 -206 l30 -34 -35 -6 c-19 -4 -35 -12 -35 -19 0 -121 50
-408 98 -567 123 -403 382 -788 701 -1045 60 -49 70 -60 55 -66 -23 -8 -34 0
-142 93 -327 284 -582 710 -686 1148 -75 313 -76 711 -1 1024 93 395 287 745
574 1040 196 200 374 329 616 447 324 157 612 223 980 223 268 0 474 -33 712
-115 62 -22 117 -39 122 -39 19 0 20 33 1 60 -24 34 -25 53 -5 84 10 15 17 58
19 132 5 115 24 234 44 271 17 30 52 53 82 53 17 0 40 15 70 45 24 25 52 45
61 45 10 0 28 -16 40 -37 20 -32 23 -34 30 -17 14 34 9 43 -28 62 -51 25 -218
85 -325 117 -62 18 -88 31 -88 42 0 20 37 13 193 -38z m-1743 34 c-1 -24 -30
-40 -136 -75 -78 -25 -121 -35 -128 -28 -15 15 -4 21 127 66 133 46 137 48
137 37z m2170 -123 c22 -11 64 -40 95 -65 46 -38 58 -43 73 -34 14 9 29 9 58
1 l39 -11 -46 5 -46 6 -21 -52 c-16 -37 -22 -74 -22 -124 0 -39 -4 -97 -10
-129 -10 -65 -4 -79 70 -161 l35 -39 -31 23 c-18 12 -38 34 -45 47 -8 14 -31
37 -51 50 -40 25 -53 59 -19 48 16 -5 20 1 26 36 5 28 3 44 -5 49 -8 5 -8 9 3
13 11 4 15 22 16 64 0 31 6 80 13 106 l12 50 -39 33 c-22 18 -67 49 -100 69
-65 38 -68 47 -5 15z m-30 -29 c0 -5 -6 -14 -14 -20 -10 -9 -15 -8 -19 3 -3 8
-1 17 6 20 19 7 27 7 27 -3z m-47 -23 c9 -32 -4 -44 -19 -17 -12 24 -10 39 5
39 5 0 11 -10 14 -22z m-2573 -22 c0 -8 -39 -36 -87 -62 -230 -123 -458 -283
-610 -428 -33 -31 -46 -37 -55 -28 -16 16 16 49 152 159 131 106 321 233 465
312 115 63 135 70 135 47z m2545 -23 c4 -14 2 -23 -4 -23 -6 0 -11 6 -11 13 0
8 -4 7 -10 -3 -8 -12 -10 -10 -10 11 0 47 21 48 35 2z m145 2 c10 -12 10 -15
-3 -15 -11 0 -14 -6 -10 -17 5 -15 3 -15 -10 2 -25 32 -3 61 23 30z m-76 -30
c-18 -44 -18 -122 1 -155 9 -16 14 -54 15 -103 0 -107 35 -167 140 -242 18
-12 19 -15 5 -10 -69 27 -157 8 -250 -54 -92 -60 -135 -105 -135 -139 0 -16
-7 -35 -15 -42 -13 -11 -15 -7 -15 22 0 25 10 46 35 75 l35 41 -69 21 c-87 26
-87 26 -129 -5 -30 -23 -33 -24 -23 -6 15 28 50 52 76 52 11 0 37 -9 58 -20
85 -46 175 -5 235 109 18 33 35 61 37 61 6 0 -10 -41 -30 -80 -8 -16 -15 -31
-15 -33 0 -2 27 5 60 16 l60 20 -31 38 c-39 50 -49 86 -49 183 l0 79 -53 54
c-60 59 -83 65 -128 32 -32 -22 -38 -39 -14 -39 17 0 27 -20 49 -101 9 -31 23
-62 31 -69 19 -16 19 -41 0 -66 -14 -18 -15 -18 -6 7 7 21 4 33 -20 69 -18 26
-29 56 -29 77 0 38 -31 76 -55 67 -8 -4 -15 -9 -15 -13 0 -3 -16 -24 -36 -46
-33 -38 -33 -36 10 30 74 115 93 135 132 135 23 0 44 -9 67 -30 l34 -30 6 40
c5 36 30 90 42 90 2 0 -3 -16 -11 -35z m336 -4 c5 -11 10 -28 10 -39 0 -10 11
-40 25 -66 14 -26 25 -53 25 -60 0 -6 30 -34 68 -61 221 -162 457 -402 634
-645 248 -342 424 -741 508 -1156 15 -78 33 -151 39 -163 13 -23 89 -71 114
-71 24 0 21 -7 -15 -43 -40 -41 -78 -126 -78 -178 0 -33 -3 -40 -17 -37 -13 2
-19 14 -20 43 -44 728 -330 1386 -828 1904 -138 143 -397 362 -412 347 -9 -9
-83 -230 -83 -248 0 -14 8 -18 38 -18 71 0 77 -26 17 -70 -19 -14 -33 -29 -32
-34 2 -6 24 -28 50 -50 42 -35 50 -38 72 -28 24 11 25 10 25 -23 0 -29 11 -46
74 -112 68 -71 77 -77 95 -65 28 17 28 17 28 -28 0 -28 8 -50 28 -76 l29 -37
13 38 c7 21 29 59 48 84 19 24 35 50 35 58 0 25 19 13 68 -47 84 -100 92 -208
22 -275 -16 -16 -30 -35 -30 -43 0 -7 21 -40 46 -73 37 -48 51 -59 74 -59 28
0 29 -1 18 -25 -10 -23 -5 -35 63 -135 71 -106 75 -110 107 -107 26 2 31 0 26
-12 -18 -42 -13 -60 42 -151 129 -213 233 -427 290 -593 19 -55 42 -113 50
-129 17 -33 15 -42 -9 -33 -8 4 -27 44 -42 93 -63 201 -162 404 -212 438 -27
18 -30 23 -17 35 12 13 6 28 -44 114 -105 181 -111 189 -130 172 -34 -30 -82
-47 -132 -47 -65 0 -158 45 -197 96 -15 20 -43 54 -60 74 -36 41 -43 66 -17
56 9 -4 36 5 60 18 51 28 93 43 149 52 22 3 42 8 44 10 2 2 -15 28 -38 58 -31
42 -51 58 -81 67 -38 11 -39 13 -24 30 19 21 18 22 -58 117 -59 72 -71 81 -83
62 -12 -20 -21 -10 -21 24 0 18 -8 46 -18 61 l-18 27 -31 -30 c-60 -55 -138
-66 -232 -31 -31 11 -71 35 -88 52 -18 18 -49 45 -70 60 -42 31 -47 47 -16 47
11 0 39 15 62 34 50 40 90 61 135 71 l33 7 -54 54 c-78 78 -100 78 -146 -3
-20 -35 -71 -99 -113 -144 l-77 -82 27 -20 c69 -51 307 -303 380 -401 227
-307 366 -652 418 -1036 8 -61 14 -191 14 -312 0 -115 4 -208 8 -208 4 0 23
-29 41 -63 33 -63 34 -65 22 -128 -15 -89 -54 -162 -122 -230 -51 -51 -65 -73
-101 -167 -51 -127 -127 -272 -212 -402 -301 -458 -774 -796 -1304 -930 -201
-51 -315 -64 -547 -64 -239 -1 -359 14 -571 69 -259 68 -578 214 -543 250 4 3
54 -19 112 -49 179 -92 368 -157 568 -198 l112 -22 21 27 21 26 16 -28 c22
-37 46 -41 258 -41 257 0 459 32 685 106 544 179 1005 572 1263 1076 35 69 37
78 37 168 0 94 -1 96 -52 200 -56 116 -82 205 -82 292 l0 57 68 68 c37 37 89
101 116 141 26 39 53 72 59 72 7 0 12 -16 12 -39 1 -28 11 -54 35 -90 l35 -51
9 33 c12 44 0 350 -18 472 -28 182 -82 373 -153 540 -36 83 -66 125 -91 125
-13 0 -13 3 1 18 16 17 13 25 -46 120 -34 57 -89 139 -122 184 -70 96 -268
304 -365 383 -65 53 -68 54 -116 49 -47 -6 -52 -4 -77 26 l-27 31 -54 -12
c-29 -6 -59 -10 -66 -7 -7 2 24 10 70 18 77 13 84 16 103 47 10 18 25 33 33
33 11 0 10 -4 -3 -19 -71 -76 -67 -70 -47 -92 15 -16 26 -19 54 -15 19 3 56 9
82 12 43 6 55 14 120 83 42 43 89 106 111 146 26 50 53 83 92 114 30 24 52 47
49 52 -19 31 -219 -25 -312 -87 -61 -40 -89 -80 -98 -141 -7 -49 -14 -57 -32
-37 -10 11 -10 14 2 14 9 0 17 15 21 41 5 26 20 55 42 79 29 33 31 39 16 43
-11 3 -8 5 10 6 16 0 26 5 23 10 -3 5 7 11 22 14 29 6 170 57 188 69 7 4 15
20 19 35 3 16 26 81 51 146 24 65 44 127 44 138 0 11 -11 42 -25 69 -14 27
-25 60 -25 74 0 13 -7 32 -16 40 -8 9 -11 16 -5 16 6 0 15 -9 21 -19z m-301
-61 c0 -9 -4 -8 -9 5 -5 11 -9 27 -9 35 0 9 4 8 9 -5 5 -11 9 -27 9 -35z
m-269 23 c0 -7 -4 -13 -8 -13 -5 0 -16 6 -25 13 -16 11 -15 12 8 12 14 0 25
-6 25 -12z m-50 -16 c0 -6 7 -19 17 -29 10 -12 12 -18 4 -18 -7 0 -9 -4 -6
-10 3 -6 -1 -7 -10 -3 -10 3 -13 8 -6 12 7 5 4 18 -9 38 -14 24 -16 31 -5 26
8 -3 15 -10 15 -16z m35 -7 c3 -5 2 -10 -4 -10 -5 0 -13 5 -16 10 -3 6 -2 10
4 10 5 0 13 -4 16 -10z m-85 -55 c11 -13 10 -14 -4 -9 -9 3 -16 10 -16 15 0
13 6 11 20 -6z m261 -36 c21 -21 21 -23 8 -56 -5 -13 -4 -25 1 -28 6 -4 10
-16 10 -28 -1 -20 -1 -21 -11 -4 -6 10 -12 34 -13 53 -1 21 -12 46 -28 65 -24
27 -25 29 -7 24 12 -4 30 -16 40 -26z m-134 -56 c-3 -10 -5 -4 -5 12 0 17 2
24 5 18 2 -7 2 -21 0 -30z m-186 -46 c-8 -8 -11 -4 -11 14 0 33 14 47 18 19 2
-12 -1 -27 -7 -33z m163 40 c-3 -8 -11 -14 -19 -14 -11 0 -12 4 -4 14 6 7 15
13 20 13 5 0 6 -6 3 -13z m-124 -121 c-6 -31 -16 -56 -21 -56 -13 0 -11 20 7
74 21 62 29 52 14 -18z m177 44 c21 -11 33 -20 28 -20 -6 0 -21 -9 -35 -19
-24 -19 -24 -20 -6 -40 21 -23 15 -27 -15 -11 -22 12 -24 0 -9 -65 8 -36 7
-38 -6 -21 -8 11 -14 33 -14 49 0 25 -2 28 -15 17 -9 -7 -14 -19 -11 -27 6
-15 -3 -17 -23 -4 -12 8 -12 12 -3 24 10 11 10 21 1 40 -14 31 -6 57 18 57 17
-1 17 -1 0 -15 -24 -17 -14 -55 14 -55 10 0 19 4 19 9 0 5 12 23 26 40 14 17
23 31 21 31 -3 0 -12 3 -20 6 -10 3 -17 -2 -20 -13 -3 -12 -5 -9 -6 10 -1 32
7 33 56 7z m33 -50 c0 -5 -4 -10 -10 -10 -5 0 -10 5 -10 10 0 6 5 10 10 10 6
0 10 -4 10 -10z m-178 -57 c-10 -4 -10 -8 -1 -19 9 -11 8 -14 -4 -14 -13 0
-15 13 -8 38 1 1 7 2 14 1 9 0 9 -2 -1 -6z m164 -39 c-3 -9 -6 -18 -6 -20 0
-3 -5 -2 -11 2 -8 4 -9 -1 -4 -17 6 -19 5 -22 -6 -12 -10 10 -10 18 -1 38 12
27 38 36 28 9z m-161 -14 c3 -5 1 -10 -4 -10 -6 0 -11 5 -11 10 0 6 2 10 4 10
3 0 8 -4 11 -10z m192 -67 c-10 -10 -22 -13 -38 -7 l-24 8 25 6 c18 4 26 14
29 35 l4 30 9 -28 c8 -22 7 -32 -5 -44z m218 -3 c-3 -5 -16 -10 -28 -10 -18 0
-19 2 -7 10 20 13 43 13 35 0z m-400 -80 c6 -10 -42 -59 -59 -60 -5 0 3 9 18
21 38 30 32 44 -9 19 -19 -12 -35 -19 -35 -16 0 7 61 46 72 46 4 0 10 -4 13
-10z m-3320 -47 c-10 -66 -38 -138 -85 -216 -27 -45 -40 -78 -40 -103 0 -33
-2 -36 -23 -31 -27 7 -35 2 -68 -43 -71 -99 -119 -217 -119 -298 0 -65 34
-132 80 -154 l35 -18 -31 0 c-39 0 -66 -27 -38 -36 11 -3 34 -12 51 -20 26
-11 38 -11 58 -2 33 15 32 23 -5 38 -37 15 -34 25 4 11 69 -27 150 55 177 179
14 66 34 67 26 1 -8 -67 -50 -153 -92 -190 -40 -35 -43 -46 -16 -61 16 -8 25
-4 53 22 34 31 85 58 113 58 25 0 17 -17 -14 -29 -15 -7 -43 -28 -61 -46 -32
-33 -33 -36 -17 -53 9 -10 17 -29 17 -43 0 -19 2 -21 11 -9 12 19 3 -51 -13
-92 -10 -27 -147 -128 -173 -128 -33 0 -114 -119 -139 -204 -12 -38 -13 -34
-14 69 -3 170 -30 274 -99 367 -20 28 -28 46 -19 42 10 -4 16 -1 16 9 0 10
-10 14 -32 12 -57 -3 -59 1 -33 70 13 35 29 74 36 86 10 20 12 21 21 5 6 -11
6 -28 -1 -47 -9 -27 0 -41 14 -20 3 6 25 9 50 7 l44 -2 -20 39 c-12 22 -23 69
-26 108 -3 38 -10 72 -14 75 -15 9 -10 34 6 34 9 0 33 37 59 93 25 50 84 144
131 207 98 130 137 200 154 280 17 76 19 80 32 80 8 0 9 -14 4 -47z m3320 -8
c-39 -30 -49 -21 -11 11 15 14 31 22 34 19 4 -3 -7 -17 -23 -30z m260 25 c3
-5 2 -10 -4 -10 -5 0 -13 5 -16 10 -3 6 -2 10 4 10 5 0 13 -4 16 -10z m2 -36
c-3 -3 -12 -4 -19 -1 -8 3 -5 6 6 6 11 1 17 -2 13 -5z m-974 -36 c-14 -88
-233 -1775 -231 -1784 2 -6 147 179 323 412 175 233 321 422 322 420 4 -4 33
-284 33 -320 0 -29 -35 -69 -300 -351 -165 -176 -297 -322 -292 -326 4 -4 306
-143 672 -309 366 -166 670 -307 677 -313 11 -11 87 -626 78 -635 -2 -2 -333
253 -735 568 -402 315 -733 570 -735 568 -2 -2 89 -226 204 -498 115 -272 207
-497 205 -498 -4 -6 -353 160 -362 172 -5 6 -49 187 -97 401 -49 215 -91 393
-95 397 -3 4 -286 -177 -629 -402 -342 -226 -626 -410 -630 -410 -6 0 -327
143 -516 230 -58 27 -59 28 -35 38 14 5 414 159 890 341 476 182 872 334 880
338 8 3 -12 10 -45 15 -60 8 -730 86 -942 110 -61 6 -110 15 -107 19 9 15 294
219 306 219 7 0 188 -47 403 -105 214 -57 392 -101 394 -99 5 5 -105 1367
-116 1445 l-5 36 239 171 c131 94 241 171 244 171 3 1 5 -9 2 -21z m837 -128
c0 -5 -2 -10 -4 -10 -3 0 -8 5 -11 10 -3 6 -1 10 4 10 6 0 11 -4 11 -10z
m-3470 -112 c23 -64 108 -238 133 -273 13 -17 15 -16 27 19 10 33 9 43 -9 86
-25 57 -26 73 -7 89 10 9 19 7 37 -8 18 -14 24 -29 24 -63 1 -36 11 -59 49
-117 27 -40 47 -74 45 -75 -2 -2 -13 -6 -24 -9 -17 -5 -25 5 -48 54 -16 32
-32 57 -37 54 -4 -3 -11 -23 -15 -45 -6 -33 -2 -48 26 -96 21 -37 42 -61 61
-68 29 -11 35 -21 18 -31 -7 -4 -8 -40 -4 -99 6 -87 5 -97 -20 -152 -15 -32
-44 -77 -65 -99 -29 -30 -40 -52 -45 -85 -18 -124 -72 -204 -174 -258 -59 -32
-159 -63 -197 -61 -23 1 -15 4 89 35 79 24 167 83 204 136 44 63 66 148 58
221 -8 75 -40 151 -61 143 -8 -3 -15 -1 -15 5 0 19 32 5 53 -23 11 -14 25 -47
31 -73 l12 -46 32 32 c74 76 79 175 16 310 -37 79 -54 97 -54 59 0 -11 -7 -20
-15 -20 -15 0 -14 19 1 68 2 7 -17 48 -41 92 -73 126 -136 307 -121 346 9 22
12 17 36 -48z m2850 -389 c0 -50 16 -67 108 -113 126 -64 224 -136 337 -250
109 -109 173 -193 236 -310 46 -86 93 -132 144 -142 l35 -6 -30 -36 c-35 -42
-38 -85 -15 -172 28 -104 39 -289 27 -419 -15 -154 -70 -367 -89 -347 -3 3 2
36 12 73 17 67 17 68 -4 115 -12 25 -31 54 -42 64 -20 18 -19 18 22 33 74 28
84 52 82 204 -2 245 -73 488 -201 689 -30 47 -45 60 -81 73 -25 8 -60 15 -78
15 -38 0 -37 -3 -18 43 26 62 20 77 -51 144 -143 135 -313 231 -529 299 -130
41 -131 41 -122 50 3 3 35 -1 72 -9 69 -16 113 -11 150 18 29 21 35 19 35 -16z
m-710 12 c0 -5 -13 -11 -29 -14 -16 -3 -43 -20 -60 -38 -18 -17 -35 -44 -38
-60 -6 -34 -18 -37 -33 -9 -6 11 -25 27 -42 36 -26 14 -37 14 -72 4 -64 -19
-224 -103 -306 -161 -92 -65 -250 -221 -313 -310 -52 -74 -60 -119 -33 -184
l15 -35 -37 0 c-20 0 -48 -6 -61 -13 -48 -24 -113 -237 -132 -434 -14 -142 -1
-304 36 -449 29 -115 28 -104 15 -104 -11 0 -33 72 -55 179 -17 81 -48 132
-95 159 l-28 16 45 40 45 41 14 125 c36 313 148 567 346 786 69 76 96 137 84
195 -5 27 -4 30 12 24 9 -4 40 -10 67 -12 41 -4 59 0 95 21 178 101 280 145
414 181 96 25 146 31 146 16z m-2690 -264 c8 -4 -1 -4 -20 -1 -35 5 -36 5 -65
-55 l-28 -61 28 -52 c16 -29 37 -62 48 -73 10 -11 26 -32 35 -47 25 -43 32
-33 9 12 -11 23 -17 43 -15 46 9 9 56 -36 88 -83 27 -42 30 -44 24 -18 -4 17
-13 47 -20 68 -7 21 -9 35 -4 32 4 -3 16 -29 26 -57 9 -29 25 -66 36 -83 10
-16 18 -37 17 -45 0 -8 -8 1 -17 20 -9 19 -24 35 -32 35 -8 0 -25 16 -38 35
-34 51 -46 49 -17 -2 14 -24 25 -46 25 -50 0 -14 -21 -9 -50 12 -15 11 -30 17
-33 14 -3 -3 -8 0 -13 7 -4 8 -3 10 4 5 19 -11 14 6 -13 49 -18 29 -24 35 -24
20 -1 -95 70 -192 184 -251 39 -21 81 -45 94 -56 13 -10 34 -18 47 -18 27 0
32 -21 9 -40 -26 -21 -16 -30 18 -16 17 8 69 16 115 18 l84 3 -5 -25 c-30
-159 -106 -246 -210 -239 -41 3 -42 2 -40 -25 1 -16 11 -39 23 -51 26 -27 25
-33 -2 -37 -23 -3 -23 -5 -20 -128 4 -149 6 -156 38 -164 l25 -7 -21 -26 c-24
-31 -25 -39 -4 -126 l17 -68 31 29 c39 36 69 54 128 76 27 10 52 25 57 33 12
22 31 7 31 -25 1 -15 7 -55 14 -89 30 -138 -37 -278 -143 -299 -35 -7 -41 -23
-11 -31 19 -5 19 -7 5 -23 -14 -15 -14 -21 0 -53 8 -20 15 -47 15 -59 0 -13
12 -56 27 -96 25 -71 27 -74 55 -70 22 4 28 1 23 -10 -18 -47 -15 -63 20 -131
21 -39 41 -71 44 -71 4 0 15 18 25 40 10 22 44 63 76 92 32 28 61 60 64 71 7
27 23 14 50 -41 13 -26 34 -66 45 -88 51 -97 22 -247 -55 -294 -19 -12 -34
-26 -34 -31 0 -5 24 -37 53 -71 48 -57 57 -63 95 -66 40 -3 42 -4 39 -34 -2
-28 6 -38 73 -90 108 -84 224 -141 293 -142 43 0 54 -3 49 -14 -9 -26 -112 -9
-194 32 -107 53 -198 124 -336 263 -91 92 -128 123 -147 123 -25 0 -33 14 -15
25 19 12 10 34 -41 111 -34 50 -61 79 -80 86 -24 8 -27 12 -18 32 9 19 3 39
-36 117 -26 52 -48 95 -49 96 -1 1 -21 -3 -44 -9 -92 -23 -180 41 -226 165
-14 37 -24 67 -23 68 1 0 45 3 97 6 52 2 97 6 99 9 2 2 -1 22 -8 44 -8 27 -21
45 -37 52 -24 11 -24 13 -8 25 17 12 16 18 -4 110 -21 91 -32 112 -66 127 -7
3 -4 11 8 20 18 15 19 21 7 103 -19 133 -19 133 -51 133 -98 0 -166 82 -176
211 -6 80 -1 107 19 91 7 -6 24 -13 37 -15 86 -16 101 -20 106 -28 3 -5 12 -9
20 -9 11 0 14 17 14 78 0 42 5 125 11 184 10 94 9 112 -5 142 -9 19 -16 39
-16 44 0 6 -28 21 -61 34 -35 13 -83 42 -111 67 -27 24 -51 42 -53 39 -11 -11
-45 -247 -56 -388 -20 -258 -2 -534 51 -800 111 -556 382 -1069 779 -1472 75
-77 93 -100 83 -110 -15 -15 -99 64 -236 223 -406 471 -644 1035 -709 1680
-16 152 -36 202 -107 261 l-37 32 45 30 c69 47 82 72 93 167 17 150 29 243 45
322 14 70 14 86 -1 175 -9 55 -27 119 -42 149 -29 59 -26 79 29 154 22 31 32
38 46 31 9 -5 24 -12 32 -15z m40 -176 c-1 -10 -6 -7 -15 9 -19 33 -18 50 0
26 8 -11 15 -27 15 -35z m130 -31 c6 -22 13 -40 16 -40 4 0 4 7 0 15 -3 9 0
15 8 15 20 0 29 -30 11 -36 -10 -4 -12 -12 -4 -31 13 -36 10 -42 -7 -13 l-15
25 6 -32 c4 -18 4 -33 1 -33 -7 0 -44 130 -43 153 1 31 16 18 27 -23z m-128
-25 c11 -20 11 -20 -11 -1 -11 11 -21 26 -21 35 0 14 2 14 10 1 6 -8 16 -24
22 -35z m93 -3 c4 -20 13 -54 21 -76 8 -21 13 -41 10 -44 -3 -2 -10 8 -16 24
-6 16 -20 46 -31 67 -22 43 -23 51 -8 41 8 -4 9 1 4 16 -5 15 -4 20 4 16 5 -4
13 -23 16 -44z m370 -62 c-3 -6 1 -7 10 -4 22 9 14 -32 -11 -52 -16 -13 -14
-13 9 1 34 20 45 15 18 -9 -19 -18 -77 -30 -93 -20 -5 3 -4 12 3 20 9 11 8 14
-2 14 -16 1 46 60 62 60 5 0 7 -4 4 -10z m79 -51 c-16 -17 -48 -42 -71 -56
-24 -14 -43 -27 -43 -29 0 -5 42 12 90 36 58 30 49 16 -12 -20 -41 -23 -64
-30 -103 -29 -27 1 -41 4 -30 6 11 3 30 16 43 30 12 13 27 21 32 18 12 -7 96
51 105 73 3 8 8 12 12 8 4 -3 -7 -20 -23 -37z m-13 -83 c-9 -11 -9 -15 1 -19
9 -3 5 -11 -12 -24 -20 -17 -29 -19 -48 -10 -20 9 -21 12 -6 20 9 5 25 18 35
28 23 23 48 27 30 5z m5015 -316 c30 0 34 -3 34 -26 0 -15 18 -49 44 -83 38
-50 54 -61 108 -81 162 -58 253 -140 228 -205 -18 -47 -102 -29 -179 37 -22
19 -41 28 -53 24 -17 -4 -19 -1 -15 22 5 27 -35 112 -53 112 -5 0 -15 3 -24 6
-14 6 -14 3 0 -31 27 -65 -4 -115 -73 -115 -56 0 -91 18 -141 75 -22 25 -44
45 -50 45 -10 0 -7 58 5 110 4 14 5 31 4 38 -3 18 3 16 127 -34 62 -25 116
-44 118 -41 8 8 -105 125 -127 132 -10 4 -19 11 -19 17 0 5 7 7 16 4 9 -3 31
-6 50 -6z m54 -420 c0 -14 7 -36 15 -50 8 -14 14 -40 15 -57 0 -31 -2 -33 -34
-33 -26 0 -51 12 -100 50 -73 56 -106 64 -106 26 0 -27 57 -103 92 -122 12 -7
34 -13 48 -14 23 0 26 -3 22 -33 -3 -23 2 -38 17 -51 21 -19 28 -46 13 -46 -4
0 -33 22 -63 48 -100 89 -169 125 -169 88 0 -8 23 -35 51 -60 55 -50 59 -63
14 -46 -16 6 -34 9 -42 6 -9 -4 -13 3 -13 20 0 14 -7 38 -15 55 -20 37 -6 69
31 69 24 0 24 1 9 30 -21 41 -19 87 4 100 34 18 58 11 127 -36 85 -58 94 -62
94 -34 0 12 -23 45 -55 79 -30 32 -55 60 -55 63 0 2 22 -3 50 -11 42 -14 50
-20 50 -41z m222 -80 c-2 -36 -10 -118 -18 -183 -121 -978 -756 -1862 -1649
-2297 -324 -157 -647 -250 -995 -286 -85 -9 -165 -18 -177 -20 -27 -5 -81 -50
-103 -86 l-17 -28 -18 40 c-30 68 -40 72 -187 81 -132 8 -308 31 -402 51 -41
9 -46 12 -34 24 12 12 31 11 133 -6 244 -40 491 -50 730 -30 1404 121 2526
1208 2690 2606 8 71 15 146 15 167 0 31 3 38 18 35 14 -3 17 -13 14 -68z
m-524 -217 c4 -25 -16 -31 -36 -11 -20 20 -14 40 11 36 14 -2 23 -11 25 -25z
m206 -63 c37 -42 50 -73 44 -111 -3 -21 -9 -24 -44 -24 l-42 0 30 -43 c42 -60
52 -100 33 -129 -9 -13 -22 -23 -29 -23 -8 0 -16 -6 -19 -12 -3 -10 -9 -8 -24
5 -34 29 -34 19 -2 -37 38 -69 38 -121 -1 -121 -16 0 -25 6 -25 15 0 10 8 14
23 13 31 -4 28 14 -17 87 -40 68 -72 88 -138 89 -45 1 -43 -24 1 -46 30 -14
34 -19 24 -36 -7 -14 -7 -27 1 -45 19 -41 5 -36 -32 13 -59 76 -58 137 1 151
42 10 43 13 21 55 -25 50 -22 94 6 94 11 0 21 -8 23 -17 2 -11 -3 -18 -12 -18
-24 0 -19 -20 18 -76 29 -43 42 -53 80 -63 93 -23 108 -12 76 55 -21 43 -61
74 -95 74 -18 0 -19 5 -4 31 8 17 3 28 -32 70 -23 27 -39 52 -36 56 3 3 25
-11 48 -31 44 -37 63 -44 74 -26 11 18 21 11 30 -22 13 -42 45 -51 45 -14 0
17 -15 42 -40 70 -22 24 -40 46 -40 50 0 16 21 3 54 -34z m-3601 -496 l107
-106 63 4 c34 2 70 8 80 12 15 7 17 2 17 -48 0 -81 22 -99 210 -169 154 -58
280 -80 455 -80 223 -1 405 39 581 125 81 40 105 70 112 137 4 48 14 63 26 42
3 -4 26 -14 51 -21 55 -15 63 -11 182 103 46 44 87 77 91 73 4 -5 -37 -50 -90
-101 -181 -174 -371 -281 -606 -341 -106 -27 -148 -49 -191 -100 l-28 -35 -21
33 c-29 47 -52 56 -168 62 -259 15 -511 101 -710 242 -71 50 -258 225 -275
256 -21 39 12 13 114 -88z m3440 -36 c-1 -22 4 -53 12 -69 22 -42 19 -125 -5
-149 -27 -27 -70 -25 -111 5 -19 13 -48 32 -66 41 -27 14 -30 20 -22 36 6 10
7 38 3 63 -7 47 9 65 20 23 16 -64 101 -158 143 -158 19 0 44 45 37 64 -4 9
-20 24 -36 32 -28 14 -29 17 -14 33 23 26 20 30 -17 24 -66 -10 -141 45 -124
91 12 32 102 13 136 -28 23 -27 34 -18 28 21 -5 28 -4 34 5 25 7 -7 11 -31 11
-54z m-478 -142 c22 9 61 13 105 12 67 -3 70 -4 70 -28 1 -14 7 -36 15 -50 8
-14 14 -38 15 -55 0 -29 2 -30 48 -31 91 -1 152 -58 152 -142 0 -55 -24 -106
-61 -133 -16 -11 -29 -27 -29 -35 0 -16 -16 -19 -25 -4 -3 6 -21 10 -38 10
-26 0 -75 18 -57 20 3 1 26 2 53 3 66 4 108 45 114 114 6 77 -36 129 -113 140
-36 4 -43 1 -86 -42 -47 -46 -68 -51 -68 -15 0 18 53 70 71 70 13 0 11 36 -5
75 -26 62 -123 97 -171 61 -19 -13 -18 -16 8 -82 15 -38 52 -112 82 -164 71
-122 95 -187 95 -256 0 -59 -17 -103 -58 -146 -80 -86 -205 -41 -281 102 -18
33 -45 70 -61 82 l-29 21 25 19 c21 17 24 27 24 92 0 110 36 205 110 289 23
26 40 54 37 61 -8 20 5 30 15 12 7 -13 13 -13 43 0z m-451 -653 c8 -105 21
-189 37 -240 9 -29 15 -33 44 -33 l33 0 -6 -45 c-3 -27 -1 -45 5 -45 18 0 36
59 30 100 -3 22 -1 40 4 40 5 0 10 -12 11 -27 6 -94 -18 -138 -74 -138 -26 0
-33 -5 -39 -29 -12 -44 -47 -76 -84 -76 -32 0 -61 23 -84 67 -18 35 -13 119 9
162 20 41 63 81 86 81 10 0 12 9 7 33 -7 38 -20 57 -39 57 -19 0 -17 14 5 34
13 12 21 37 25 86 4 39 11 70 15 70 5 0 11 -44 15 -97z m-2967 -34 c8 -8 24
-8 61 0 41 10 55 10 90 -4 95 -38 97 -132 3 -249 -17 -21 -33 -53 -37 -72 -5
-29 -9 -33 -29 -28 -18 4 -37 -5 -77 -36 -61 -49 -64 -53 -43 -70 8 -7 15 -17
15 -23 0 -6 -11 0 -25 13 -23 22 -25 22 -50 6 -14 -9 -31 -28 -37 -42 -12 -26
-19 -29 -34 -14 -6 6 -40 -1 -94 -20 -67 -24 -102 -30 -168 -30 -96 0 -137 14
-175 59 -54 65 -25 152 68 203 28 15 60 38 72 53 21 24 23 24 33 6 7 -14 25
-21 67 -26 76 -10 164 -46 228 -94 l51 -39 50 35 c70 50 171 151 199 198 53
90 27 155 -61 155 -41 0 -50 -4 -98 -53 -63 -63 -96 -140 -96 -223 0 -66 -15
-64 -25 3 -4 26 -13 60 -21 75 -18 34 -18 35 4 40 20 6 102 139 102 168 0 22
10 26 27 9z m-333 -116 c16 -9 11 -11 -28 -14 -43 -4 -47 -3 -42 16 3 11 6 26
6 34 0 11 6 9 23 -6 12 -11 31 -25 41 -30z m506 17 c0 -18 -7 -20 -67 -20 -38
0 -79 -3 -93 -6 -23 -6 -24 -5 -10 9 15 15 87 34 143 36 21 1 27 -4 27 -19z
m123 -244 c7 -17 -11 -36 -35 -36 -21 0 -24 20 -6 38 16 16 35 15 41 -2z
m2423 -27 c15 -16 20 -41 24 -112 3 -60 9 -92 18 -95 17 -5 40 54 48 122 4 31
11 56 17 56 14 0 -1 -107 -23 -156 -21 -49 -52 -62 -81 -33 -16 16 -19 34 -19
114 0 78 -3 97 -16 102 -24 9 -42 -16 -59 -85 -15 -57 -15 -65 -1 -94 19 -38
19 -38 2 -38 -19 0 -28 -16 -36 -60 -3 -22 -12 -36 -23 -38 -16 -3 -17 2 -10
55 11 82 8 192 -6 206 -19 19 -31 -5 -38 -76 -3 -37 -10 -67 -16 -67 -15 0 0
119 18 147 18 27 41 29 66 7 16 -14 18 -14 29 8 32 61 72 75 106 37z m-2526
-28 c0 -4 -18 -20 -40 -35 -59 -39 -120 -96 -120 -112 0 -36 147 9 158 49 3
13 8 15 17 7 10 -8 27 -4 64 14 58 30 61 30 61 14 0 -7 -20 -26 -45 -41 -58
-37 -105 -92 -105 -122 0 -22 4 -25 38 -25 39 0 114 30 144 57 10 9 18 27 18
39 0 21 3 22 24 15 17 -7 32 -4 56 10 24 15 36 17 44 9 7 -7 8 -13 0 -18 -41
-28 -157 -128 -165 -144 -19 -35 19 -33 92 5 76 40 96 33 25 -8 -81 -47 -139
-53 -151 -14 -3 10 -1 27 5 38 10 19 9 20 -25 6 -19 -8 -52 -15 -74 -15 -54 0
-79 33 -62 81 15 42 15 42 -19 24 -16 -8 -46 -15 -68 -15 -108 0 -65 102 72
166 59 27 56 27 56 15z m2195 -118 c-4 -10 -9 -62 -12 -115 -5 -87 -4 -98 11
-98 20 0 54 53 62 98 7 37 24 53 24 22 0 -29 -27 -91 -52 -117 -25 -27 -54
-29 -78 -8 -16 14 -18 13 -30 -15 -26 -63 -101 -89 -140 -50 -26 26 -26 100 0
159 11 24 20 52 20 62 0 10 7 19 15 19 8 0 29 9 47 20 37 23 78 26 96 8 10
-10 14 -8 18 10 4 12 11 22 16 22 6 0 7 -8 3 -17z m-1056 -41 c-12 -20 -26
-41 -31 -46 -16 -19 -7 -25 47 -31 73 -10 61 -25 -14 -18 l-59 6 -22 -43 c-17
-33 -21 -54 -16 -86 5 -38 3 -43 -16 -46 -28 -4 -42 -29 -34 -61 5 -22 12 -27
37 -27 24 0 42 12 85 55 57 59 71 61 30 6 -38 -51 -85 -81 -128 -81 -31 0 -40
5 -53 29 -9 19 -13 42 -9 63 l6 33 -27 -33 c-67 -82 -167 -81 -149 2 6 30 6
30 -12 14 -22 -19 -137 -78 -152 -78 -18 0 -122 -142 -122 -167 0 -20 -4 -23
-20 -18 -13 4 -31 0 -47 -10 -39 -26 -83 -36 -104 -24 -15 8 -19 21 -19 69 0
57 1 60 25 60 13 0 41 11 61 25 20 14 63 35 95 46 58 21 64 29 61 72 -1 12 6
17 26 17 22 0 44 19 111 91 46 49 86 88 88 85 3 -3 -30 -53 -72 -111 -43 -58
-76 -108 -74 -110 7 -6 108 49 144 78 23 18 35 36 35 53 0 21 3 24 21 19 16
-5 30 1 55 26 47 45 50 33 8 -27 -43 -59 -74 -118 -74 -139 0 -57 130 46 178
143 18 34 32 64 32 66 0 2 -18 7 -40 11 -43 7 -50 23 -22 48 21 19 32 13 32
-15 0 -12 7 -18 23 -18 17 0 37 17 71 60 50 66 82 73 45 12z m-286 -18 c11
-12 -13 -44 -33 -44 -23 0 -24 4 -10 31 11 19 31 25 43 13z m-1292 -40 c115
-85 412 -237 602 -307 90 -33 114 -46 107 -57 -7 -11 -16 -12 -52 -1 -253 75
-822 391 -704 391 7 0 28 -11 47 -26z m918 -44 c52 -15 70 -25 63 -32 -8 -8
-34 -4 -92 12 -44 12 -80 26 -80 30 0 11 11 19 23 15 7 -2 45 -14 86 -25z
m807 -27 c1 -27 5 -75 9 -109 5 -41 4 -68 -4 -82 -22 -41 8 -23 49 29 34 43
40 57 35 80 -6 26 -4 29 20 29 17 0 38 13 62 38 40 42 40 33 -2 -66 -32 -76
-31 -135 1 -140 33 -5 89 61 145 171 46 90 69 117 69 83 0 -7 -16 -58 -35
-111 -20 -54 -33 -105 -31 -112 9 -24 42 3 78 62 18 30 35 55 39 55 3 0 6 -20
7 -45 0 -39 -3 -45 -20 -45 -11 0 -36 -13 -55 -30 -18 -16 -39 -30 -46 -30
-19 0 -37 21 -37 43 0 16 -8 12 -45 -22 -72 -66 -135 -49 -135 37 l0 34 -45
-50 c-71 -79 -144 -103 -186 -61 -23 23 -18 39 5 20 24 -20 59 -9 78 26 15 24
18 48 16 105 l-3 73 -28 -47 c-29 -48 -58 -68 -36 -25 27 52 81 137 87 137 4
0 8 -21 8 -47z"/>
<path d="M4215 6592 c-41 -25 -223 -268 -210 -280 9 -9 116 72 171 130 54 57
101 139 89 158 -9 14 -16 13 -50 -8z"/>
<path d="M3255 6259 c-51 -14 -102 -65 -139 -141 -39 -77 -45 -121 -20 -156
31 -44 96 -17 149 63 52 79 100 194 89 213 -14 22 -45 30 -79 21z"/>
<path d="M3970 6110 c0 -5 9 -10 20 -10 11 0 20 5 20 10 0 6 -9 10 -20 10 -11
0 -20 -4 -20 -10z"/>
<path d="M2914 6563 c-37 -38 -96 -212 -119 -353 l-7 -45 21 26 c36 46 99 172
120 243 33 107 26 169 -15 129z"/>
<path d="M2405 6427 c-19 -29 -30 -173 -20 -263 l8 -69 23 70 c31 97 48 223
35 258 -13 33 -26 34 -46 4z"/>
<path d="M2900 6186 c0 -19 27 -46 46 -46 17 0 17 2 2 35 -12 27 -48 35 -48
11z"/>
<path d="M2133 5691 c5 -150 9 -161 53 -161 34 0 54 31 54 84 0 52 -24 106
-78 176 l-35 45 6 -144z"/>
<path d="M1444 5755 c-10 -24 3 -131 25 -205 38 -133 130 -318 139 -278 6 28
-38 267 -64 349 -35 110 -84 176 -100 134z"/>
<path d="M1877 5650 c-42 -33 -60 -97 -55 -193 6 -122 52 -187 108 -157 49 26
63 142 36 284 -17 88 -40 105 -89 66z"/>
<path d="M4456 5948 c-3 -13 -6 -41 -6 -64 0 -22 -7 -49 -15 -60 -20 -26 -19
-58 3 -77 16 -15 20 -13 51 32 25 38 31 53 23 68 -5 10 -13 37 -17 60 -8 52
-30 74 -39 41z"/>
<path d="M5311 5485 c-24 -8 -58 -27 -75 -43 -17 -16 -40 -32 -51 -36 -18 -7
-18 -8 6 -24 13 -9 40 -32 59 -49 36 -34 114 -63 170 -63 32 0 110 37 110 52
0 4 -12 8 -27 8 l-28 1 28 12 c28 12 28 13 10 29 -23 21 -91 37 -168 39 -56 1
-58 2 -25 10 19 5 62 7 94 3 l60 -5 -41 40 c-44 44 -55 47 -122 26z"/>
<path d="M5727 5363 c-15 -20 -32 -54 -39 -75 -11 -36 -10 -41 14 -65 l26 -25
7 41 c10 60 20 57 22 -7 1 -32 6 -70 13 -86 l11 -29 24 23 c38 36 47 77 32
137 -12 43 -60 121 -77 122 -3 0 -17 -16 -33 -36z"/>
<path d="M5794 4816 c-18 -8 -34 -19 -38 -24 -3 -6 -20 -13 -36 -17 l-30 -7
27 -28 c16 -15 39 -42 52 -60 53 -70 182 -101 249 -60 17 11 32 22 32 26 0 3
-9 19 -21 35 -14 20 -38 34 -86 49 -36 11 -76 20 -90 20 -13 0 -22 4 -18 9 6
11 61 5 113 -11 37 -11 55 -3 32 15 -8 7 -23 24 -33 40 -15 24 -23 27 -70 27
-28 -1 -66 -7 -83 -14z"/>
<path d="M5640 3525 c-14 -26 -31 -57 -38 -71 -7 -13 -17 -24 -23 -24 -5 0 -9
-7 -9 -16 0 -8 -4 -13 -9 -10 -5 4 -21 -7 -34 -24 -14 -16 -30 -30 -34 -30
-14 0 -33 -62 -33 -106 0 -63 27 -151 82 -269 51 -107 52 -111 51 -200 0 -55
2 -82 7 -70 5 11 9 34 9 51 1 17 8 53 16 81 12 39 23 57 49 72 40 25 114 103
143 151 39 65 68 200 43 200 -5 0 -10 7 -10 15 0 24 -29 65 -87 123 -50 51
-71 84 -90 145 l-9 29 -24 -47z m-33 -367 c-3 -7 -5 -2 -5 12 0 14 2 19 5 13
2 -7 2 -19 0 -25z"/>
<path d="M840 4727 c-28 -14 -46 -30 -48 -42 -2 -13 0 -16 5 -8 5 7 23 13 40
15 21 1 36 10 44 25 17 33 10 34 -41 10z"/>
<path d="M906 4715 c-21 -32 -20 -38 3 -25 27 14 64 13 81 -2 8 -7 6 -2 -5 12
-38 48 -55 51 -79 15z"/>
<path d="M1035 4690 c-3 -5 1 -10 9 -10 8 0 18 5 21 10 3 6 -1 10 -9 10 -8 0
-18 -4 -21 -10z"/>
<path d="M1113 4693 c-19 -7 -15 -38 7 -58 25 -23 26 -47 2 -68 -26 -24 -41
-21 -54 8 -9 19 -9 28 0 37 9 9 12 7 12 -10 0 -26 22 -29 41 -6 27 33 -58 73
-89 42 -9 -9 -12 -8 -12 6 0 15 -5 17 -32 12 -17 -3 -46 -18 -65 -32 -18 -14
-33 -21 -33 -15 0 5 14 21 32 35 39 30 31 45 -11 20 -34 -20 -40 -49 -16 -80
14 -18 15 -18 26 -1 8 14 14 16 25 6 8 -6 14 -8 14 -3 0 5 4 3 9 -5 18 -28 41
-21 42 12 1 27 2 28 6 7 2 -14 11 -44 19 -67 14 -39 14 -44 -3 -70 -19 -29 -8
-27 30 5 14 12 17 12 17 1 0 -7 -12 -24 -27 -37 -31 -26 -26 -25 29 3 43 22
60 14 33 -15 -25 -27 -81 -27 -95 0 -6 12 -7 27 -2 36 14 26 2 73 -21 80 -12
4 -23 2 -25 -5 -6 -19 -20 -12 -24 12 -3 21 -4 21 -9 2 -3 -11 2 -45 11 -75
l17 -54 17 32 c22 43 29 41 10 -3 -15 -37 -20 -165 -5 -165 4 0 20 18 34 39
34 51 79 85 148 111 31 11 69 32 84 46 25 23 27 29 21 77 -7 51 -20 77 -37 77
-5 0 -10 -37 -11 -82 -1 -51 -3 -66 -5 -38 -4 44 -17 70 -34 70 -5 0 -9 -7 -9
-15 0 -30 -38 -55 -80 -53 -23 1 -36 4 -30 8 6 4 21 5 33 3 36 -7 64 37 58 93
-1 5 -10 20 -22 33 -12 12 -19 25 -16 27 7 7 57 -48 57 -62 0 -7 7 -14 15 -18
27 -10 17 43 -14 75 -29 28 -43 33 -68 22z"/>
<path d="M1420 5223 c0 -10 5 -25 10 -33 8 -12 10 -9 10 12 0 15 -4 30 -10 33
-5 3 -10 -2 -10 -12z"/>
<path d="M1035 4015 c-22 -8 -41 -15 -42 -15 -2 0 -3 -14 -3 -30 0 -29 2 -30
23 -19 19 10 19 8 -6 -18 -27 -29 -50 -86 -39 -97 13 -14 81 -5 104 13 36 29
75 91 82 132 6 35 5 37 -25 43 -42 8 -47 8 -94 -9z"/>
<path d="M770 3633 c0 -51 34 -138 63 -161 9 -8 35 -16 58 -19 l42 -6 -7 29
c-4 15 -24 50 -43 77 l-37 49 42 -26 42 -26 0 26 c0 14 -4 34 -10 44 -10 19
-96 57 -107 47 -3 -4 -14 -2 -24 4 -17 9 -19 5 -19 -38z"/>
<path d="M1196 3245 c-11 -8 -30 -15 -43 -15 -14 0 -43 -19 -74 -49 -41 -40
-50 -54 -46 -73 3 -13 10 -39 14 -58 l9 -34 27 55 c14 30 38 66 53 80 l26 24
-30 -50 c-43 -72 -66 -139 -58 -171 6 -24 8 -25 25 -10 24 22 34 20 21 -5 -16
-30 -10 -31 35 -6 75 41 104 144 80 285 -8 46 -11 48 -39 27z"/>
<path d="M949 2763 l-27 -4 20 -52 c35 -92 116 -146 182 -121 33 13 8 47 -74
107 -24 17 -24 17 -2 12 12 -3 31 -8 43 -11 18 -5 20 -3 14 18 -4 12 -13 29
-20 37 -14 14 -90 22 -136 14z"/>
<path d="M1455 2477 c-70 -64 -86 -84 -102 -125 -14 -38 -14 -44 0 -60 9 -9
21 -31 28 -47 l12 -30 9 40 c14 66 39 147 44 143 2 -3 -3 -36 -11 -74 -8 -38
-15 -81 -15 -96 0 -33 30 -98 45 -98 6 0 29 18 50 40 38 39 40 44 43 113 4 74
0 86 -52 182 l-21 40 -30 -28z"/>
<path d="M6147 3843 c-12 -12 -7 -43 12 -82 43 -84 147 -139 198 -106 19 13
23 22 18 42 -12 50 -39 75 -121 114 -85 40 -96 44 -107 32z"/>
<path d="M6460 3722 c0 -17 98 -117 139 -144 51 -32 73 -35 91 -13 19 23 -13
61 -86 102 -64 36 -144 66 -144 55z m94 -48 c9 -8 16 -25 16 -36 0 -20 -1 -20
-19 -4 -21 19 -34 56 -21 56 5 0 16 -7 24 -16z"/>
<path d="M5930 2657 c0 -24 37 -48 79 -54 50 -7 53 5 10 41 -33 28 -89 36 -89
13z"/>
<path d="M5532 2407 c-32 -34 -70 -124 -82 -199 -15 -84 -2 -173 36 -259 29
-65 53 -82 92 -68 20 8 22 6 22 -24 0 -40 15 -57 51 -57 57 0 109 68 109 144
0 36 -5 48 -26 65 -21 17 -23 22 -13 39 11 17 4 35 -49 128 -33 60 -71 142
-84 181 -13 40 -26 73 -29 73 -3 0 -15 -10 -27 -23z"/>
<path d="M5748 2289 c-19 -11 -24 -29 -8 -29 5 0 14 9 20 20 12 23 12 23 -12
9z"/>
<path d="M5117 1629 c-29 -17 -47 -65 -47 -124 0 -127 89 -181 121 -75 11 36
9 49 -16 125 -15 47 -31 85 -34 85 -3 0 -14 -5 -24 -11z"/>
<path d="M1763 1490 c-63 -13 -109 -38 -143 -76 -33 -38 -36 -56 -17 -93 29
-57 120 -75 232 -46 65 17 238 96 249 113 8 14 -55 57 -120 81 -61 24 -146 32
-201 21z"/>
<path d="M4451 1232 c-53 -55 -77 -153 -51 -203 30 -54 98 14 128 127 12 45
20 89 16 98 -11 29 -55 19 -93 -22z"/>
<path d="M2843 844 c-78 -38 -145 -119 -114 -138 25 -16 88 32 159 122 39 49
28 53 -45 16z"/>
</g>
</svg>
